<?xml version="1.0" standalone="no"?>
<!DOCTYPE svg PUBLIC "-//W3C//DTD SVG 20010904//EN"
 "http://www.w3.org/TR/2001/REC-SVG-20010904/DTD/svg10.dtd">
<svg version="1.0" xmlns="http://www.w3.org/2000/svg"
 width="1024.000000pt" height="1024.000000pt" viewBox="0 0 1024.000000 1024.000000"
 preserveAspectRatio="xMidYMid meet">

<g transform="translate(0.000000,1024.000000) scale(0.100000,-0.100000)"
fill="#000000" stroke="none">
<path d="M0 5120 l0 -5120 5120 0 5120 0 0 4959 c0 3896 -3 4961 -13 4964 -9
4 -9 6 1 6 17 1 15 20 -6 39 -9 10 -13 14 -8 10 21 -17 24 -4 23 109 -2 94 -5
117 -17 120 -13 4 -13 3 0 -6 9 -7 11 -11 3 -11 -7 0 -16 7 -21 16 -8 15 -10
15 -15 0 -4 -9 1 -19 11 -25 9 -5 17 -21 17 -35 1 -20 -2 -23 -13 -14 -10 8
-10 13 -1 19 8 5 5 10 -10 18 -11 7 -21 18 -21 25 0 12 -40 46 -54 46 -2 0 1
-11 7 -25 7 -14 17 -23 24 -21 8 3 10 -1 6 -11 -5 -13 -10 -12 -29 11 -13 14
-27 27 -31 29 -5 1 -7 5 -5 10 1 4 -2 7 -8 7 -21 0 -9 -33 23 -63 19 -18 24
-26 11 -19 -11 6 -33 27 -48 47 -20 26 -34 35 -57 35 -16 0 -29 -4 -29 -9 0
-5 11 -8 24 -7 14 2 27 -3 30 -10 4 -10 -1 -11 -18 -4 -13 5 -27 6 -30 3 -3
-3 -8 2 -12 11 -3 9 -11 16 -16 16 -6 0 -7 -7 -4 -16 4 -10 2 -14 -6 -11 -7 2
-12 9 -11 15 1 6 -66 10 -188 10 -146 1 -188 -2 -182 -11 5 -9 3 -9 -8 0 -13
10 -1010 13 -4787 13 l-4772 0 0 -5120z m9500 5090 c0 -5 -2 -10 -4 -10 -3 0
-8 5 -11 10 -3 6 -1 10 4 10 6 0 11 -4 11 -10z m364 -16 c3 -8 2 -12 -4 -9 -6
3 -10 10 -10 16 0 14 7 11 14 -7z m256 -87 c27 -36 28 -38 4 -12 -15 17 -32
29 -37 27 -4 -1 -6 2 -2 8 3 5 -1 10 -10 10 -9 0 -13 5 -10 10 9 14 18 7 55
-43z m59 50 c-2 -1 -14 -10 -26 -20 -16 -14 -23 -15 -29 -6 -4 7 -3 10 3 6 6
-4 16 0 23 8 7 8 17 15 23 15 6 0 8 -1 6 -3z m10 -40 c12 -15 12 -17 -3 -11
-9 3 -16 13 -16 22 0 8 1 13 3 11 1 -2 9 -12 16 -22z m-5 -36 c-2 -3 -12 3
-22 13 -16 17 -16 18 5 5 12 -7 20 -15 17 -18z m-200 -17 c3 -8 2 -12 -4 -9
-6 3 -10 10 -10 16 0 14 7 11 14 -7z m227 -46 c-11 -11 -13 -10 -6 0 4 8 -1
23 -11 35 -18 22 -18 22 6 0 20 -19 22 -25 11 -35z m-24 -243 c0 -8 -4 -12 -9
-9 -5 3 -6 10 -3 15 9 13 12 11 12 -6z m-106 -172 c13 -16 12 -17 -3 -4 -10 7
-18 15 -18 17 0 8 8 3 21 -13z m-6188 -3031 l78 3 -3 -1602 -3 -1603 -168 0
-168 0 3 1608 3 1607 90 -8 c50 -4 125 -7 168 -5z m2809 6 c120 -3 128 -4 128
-23 0 -11 1 -733 3 -1605 l2 -1585 -163 2 -162 3 0 1512 c0 832 0 1557 0 1611
l0 98 33 -6 c17 -2 89 -6 159 -7z m-2224 -8 l122 0 0 -520 0 -520 640 0 640 0
0 525 0 525 164 0 164 0 7 -107 c4 -58 4 -368 0 -687 l-8 -581 -960 3 c-529 2
-962 4 -963 5 -8 9 -15 871 -9 1092 l7 277 37 -6 c20 -3 91 -6 159 -6z m357
-790 c3 -5 1 -10 -4 -10 -6 0 -11 5 -11 10 0 6 2 10 4 10 3 0 8 -4 11 -10z
m982 -880 l393 0 0 -763 0 -763 -167 0 -168 1 0 596 0 597 -78 6 c-43 4 -327
6 -631 6 l-553 -1 -7 -106 c-3 -58 -6 -333 -6 -611 l0 -504 -31 6 c-17 3 -92
6 -165 6 l-134 0 0 463 c0 255 3 599 7 765 l6 302 226 3 c124 2 381 2 570 0
189 -1 521 -3 738 -3z"/>
</g>
</svg>
